<?xml version="1.0" encoding="utf-8"?>
<!-- Generator: Adobe Illustrator 16.0.0, SVG Export Plug-In . SVG Version: 6.00 Build 0)  -->
<!DOCTYPE svg PUBLIC "-//W3C//DTD SVG 1.1//EN" "http://www.w3.org/Graphics/SVG/1.1/DTD/svg11.dtd">
<svg version="1.1" id="Ebene_1" xmlns="http://www.w3.org/2000/svg" xmlns:xlink="http://www.w3.org/1999/xlink" x="0px" y="0px"
	 width="81.911px" height="78.721px" viewBox="0 0 81.911 78.721" enable-background="new 0 0 81.911 78.721" xml:space="preserve">
<g>
	<g>
		<defs>
			<rect id="SVGID_1_" y="0" width="81.913" height="78.721"/>
		</defs>
		<clipPath id="SVGID_2_">
			<use xlink:href="#SVGID_1_"  overflow="visible"/>
		</clipPath>
		<path clip-path="url(#SVGID_2_)" d="M40.916,22.055h33.598c1.143,0,1.143-0.002,1.143-1.18c0-2.586,0.004-5.172,0-7.76
			c-0.004-2.503-1.225-3.714-3.744-3.714C51.275,9.4,30.638,9.4,10.002,9.402c-2.543,0-3.741,1.219-3.743,3.793
			c-0.003,2.533-0.008,5.065,0,7.6c0.006,1.369-0.179,1.259,1.224,1.259C18.626,22.057,29.77,22.055,40.916,22.055 M6.256,28.352
			v0.908c0,12.079-0.001,24.157,0.002,36.233c0,2.596,1.218,3.805,3.826,3.805c20.583,0.002,41.165,0.002,61.747,0
			c2.606,0,3.825-1.211,3.825-3.809c0.003-12.078,0-24.156,0-36.233v-0.904H6.256z M69.913,78.721h-4.317
			c-1.495-0.527-2.478-1.496-2.591-3.14H18.895c-0.116,1.688-1.114,2.611-2.575,3.14H12c-1.486-0.543-2.436-1.543-2.572-3.157
			c-0.193-0.022-0.297-0.041-0.402-0.045c-3.994-0.225-7.293-2.729-8.526-6.49c-0.198-0.598-0.335-1.217-0.5-1.824V11.528
			c0.054-0.146,0.134-0.287,0.158-0.438c0.7-4.376,4.236-7.619,8.68-7.895c1.24-0.075,2.489-0.012,3.694-0.012
			c0.568-2.435,1.521-3.18,3.904-3.182h4.079c4.662,0,9.325-0.009,13.989,0.006c1.795,0.006,2.922,0.999,3.247,2.776
			c0.018,0.099,0.064,0.189,0.105,0.305H50.36c0.059-0.229,0.111-0.43,0.16-0.631c0.381-1.506,1.492-2.438,3.043-2.445
			c4.209-0.02,8.42-0.02,12.629,0.003c1.527,0.008,2.676,0.993,3.029,2.477c0.045,0.195,0.086,0.396,0.137,0.638
			c0.951,0,1.855-0.011,2.758,0.002c4.817,0.071,8.424,2.854,9.524,7.332c0.086,0.355,0.182,0.711,0.271,1.063v55.677
			c-0.055,0.143-0.135,0.282-0.162,0.432c-0.705,3.688-2.828,6.184-6.365,7.414c-0.913,0.318-1.908,0.406-2.93,0.613
			C72.351,77.236,71.356,78.168,69.913,78.721"/>
	</g>
	<g>
		<defs>
			<rect id="SVGID_3_" y="0" width="81.913" height="78.721"/>
		</defs>
		<clipPath id="SVGID_4_">
			<use xlink:href="#SVGID_3_"  overflow="visible"/>
		</clipPath>
		<path clip-path="url(#SVGID_4_)" d="M40.96,62.931c-8.237,0-16.474,0.002-24.709,0c-1.904-0.002-3.07-0.768-3.488-2.295
			c-0.09-0.328-0.115-0.682-0.115-1.025c-0.006-7.194-0.01-14.393-0.002-21.59c0.002-2.045,1.189-3.271,3.238-3.383
			c0.213-0.014,0.426-0.006,0.639-0.006c16.287,0,32.575,0,48.858,0.002c0.318,0,0.643,0,0.957,0.037
			c1.838,0.213,2.926,1.406,2.93,3.262c0.01,6.131,0.004,12.262,0.004,18.392c0.002,1.12,0.008,2.239-0.002,3.358
			c-0.025,1.904-1.213,3.158-3.121,3.232c-1.225,0.047-2.452,0.016-3.676,0.016H40.96L40.96,62.931z"/>
	</g>
	<g>
		<defs>
			<rect id="SVGID_5_" y="0" width="81.913" height="78.721"/>
		</defs>
		<clipPath id="SVGID_6_">
			<use xlink:href="#SVGID_5_"  overflow="visible"/>
		</clipPath>
		<path clip-path="url(#SVGID_6_)" d="M12.648,15.698c0.005-1.727,1.366-3.078,3.101-3.08c1.724-0.003,3.107,1.36,3.115,3.071
			c0.007,1.735-1.438,3.18-3.15,3.147C14.001,18.806,12.644,17.414,12.648,15.698"/>
	</g>
	<g>
		<defs>
			<rect id="SVGID_7_" y="0" width="81.913" height="78.721"/>
		</defs>
		<clipPath id="SVGID_8_">
			<use xlink:href="#SVGID_7_"  overflow="visible"/>
		</clipPath>
		<path clip-path="url(#SVGID_8_)" d="M25.169,12.619c1.736-0.017,3.119,1.321,3.139,3.04c0.02,1.757-1.373,3.182-3.107,3.181
			c-1.688-0.002-3.097-1.411-3.107-3.11C22.083,14.014,23.445,12.635,25.169,12.619"/>
	</g>
	<g>
		<defs>
			<rect id="SVGID_9_" y="0" width="81.913" height="78.721"/>
		</defs>
		<clipPath id="SVGID_10_">
			<use xlink:href="#SVGID_9_"  overflow="visible"/>
		</clipPath>
		<path clip-path="url(#SVGID_10_)" d="M37.755,15.737c-0.008,1.711-1.402,3.104-3.104,3.104c-1.688-0.003-3.104-1.416-3.113-3.107
			c-0.012-1.745,1.398-3.133,3.158-3.111C36.429,12.64,37.763,13.997,37.755,15.737"/>
	</g>
	<g>
		<defs>
			<rect id="SVGID_11_" y="0" width="81.913" height="78.721"/>
		</defs>
		<clipPath id="SVGID_12_">
			<use xlink:href="#SVGID_11_"  overflow="visible"/>
		</clipPath>
		<path clip-path="url(#SVGID_12_)" d="M69.263,15.693c0.006,1.72-1.349,3.108-3.063,3.146c-1.709,0.033-3.158-1.409-3.152-3.146
			c0.006-1.711,1.387-3.077,3.111-3.075C67.894,12.618,69.256,13.97,69.263,15.693"/>
	</g>
	<g>
		<defs>
			<rect id="SVGID_13_" y="0" width="81.913" height="78.721"/>
		</defs>
		<clipPath id="SVGID_14_">
			<use xlink:href="#SVGID_13_"  overflow="visible"/>
		</clipPath>
		<path clip-path="url(#SVGID_14_)" d="M44.131,12.62c1.738,0.012,3.072,1.357,3.07,3.099c-0.002,1.725-1.367,3.106-3.08,3.119
			c-1.707,0.013-3.167-1.46-3.139-3.168C41.013,13.961,42.411,12.608,44.131,12.62"/>
	</g>
</g>
</svg>
