<?xml version="1.0" encoding="utf-8"?>
<!-- Generator: Adobe Illustrator 16.0.0, SVG Export Plug-In . SVG Version: 6.00 Build 0)  -->
<!DOCTYPE svg PUBLIC "-//W3C//DTD SVG 1.1//EN" "http://www.w3.org/Graphics/SVG/1.1/DTD/svg11.dtd">
<svg version="1.1" id="Ebene_1" xmlns="http://www.w3.org/2000/svg" xmlns:xlink="http://www.w3.org/1999/xlink" x="0px" y="0px"
	 width="81.911px" height="99.614px" viewBox="0 -20.893 81.911 99.614" enable-background="new 0 -20.893 81.911 99.614"
	 xml:space="preserve">
<g>
	<defs>
		<rect id="SVGID_1_" y="-20.893" width="81.911" height="99.614"/>
	</defs>
	<clipPath id="SVGID_2_">
		<use xlink:href="#SVGID_1_"  overflow="visible"/>
	</clipPath>
	<path clip-path="url(#SVGID_2_)" d="M35.831,52.828v6.537c0,2.824,2.299,5.109,5.125,5.109c2.823,0,5.111-2.285,5.111-5.109v-6.537
		c3.049-1.773,5.124-5.049,5.124-8.824c0-5.664-4.587-10.234-10.235-10.234c-5.662,0-10.234,4.57-10.234,10.234
		C30.721,47.78,32.781,51.055,35.831,52.828 M71.663,68.487H10.236V28.789h61.427V68.487z M20.476,9.827
		c0-11.312,9.177-20.486,20.485-20.486c11.312,0,20.473,9.175,20.473,20.486l-0.008,8.712H20.47L20.476,9.827z M71.663,18.539
		l0.006-8.712c0-16.972-13.746-30.72-30.707-30.72c-16.972,0-30.72,13.748-30.72,30.72l-0.006,8.712C4.588,18.539,0,23.127,0,28.778
		v39.709c0,5.648,4.588,10.234,10.236,10.234h61.427c5.662,0,10.248-4.586,10.248-10.234V28.778
		C81.911,23.127,77.325,18.539,71.663,18.539"/>
</g>
</svg>
