<?xml version="1.0" encoding="utf-8"?>
<!-- Generator: Adobe Illustrator 16.0.0, SVG Export Plug-In . SVG Version: 6.00 Build 0)  -->
<!DOCTYPE svg PUBLIC "-//W3C//DTD SVG 1.1//EN" "http://www.w3.org/Graphics/SVG/1.1/DTD/svg11.dtd">
<svg version="1.1" id="Ebene_1" xmlns="http://www.w3.org/2000/svg" xmlns:xlink="http://www.w3.org/1999/xlink" x="0px" y="0px"
	 width="81.911px" height="99.614px" viewBox="0 0 81.911 99.614" enable-background="new 0 0 81.911 99.614" xml:space="preserve">
<g>
	<defs>
		<rect id="SVGID_1_" width="81.911" height="99.614"/>
	</defs>
	<clipPath id="SVGID_2_">
		<use xlink:href="#SVGID_1_"  overflow="visible"/>
	</clipPath>
	<path clip-path="url(#SVGID_2_)" fill="#010202" d="M30.72,64.916c0,3.775,2.061,7.05,5.11,8.824v6.536
		c0,2.825,2.3,5.109,5.125,5.109c2.824,0,5.111-2.284,5.111-5.109V73.74c3.05-1.774,5.124-5.049,5.124-8.824
		c0-5.664-4.586-10.235-10.235-10.235C35.293,54.681,30.72,59.252,30.72,64.916 M71.663,89.378H10.236V49.683h61.427V89.378z
		 M81.911,89.378V49.669c0-5.648-4.586-10.237-10.248-10.237H61.427h-20.84H20.47l0.006-8.711c0-11.313,9.177-20.486,20.486-20.486
		c4.595,0,9.705,2.213,13.121,4.77l0.003-0.005c0.855,0.642,1.914,1.025,3.064,1.025c2.829,0,5.123-2.293,5.123-5.122
		c0-1.622-0.756-3.065-1.932-4.003C55.042,2.539,48.359,0,40.962,0c-16.972,0-30.72,13.747-30.72,30.721l-0.007,8.711
		C4.588,39.432,0,44.021,0,49.669v39.709c0,5.649,4.588,10.236,10.235,10.236h61.428C77.325,99.614,81.911,95.027,81.911,89.378"/>
</g>
</svg>
